<?xml version="1.0" encoding="UTF-8"?>
<svg xmlns="http://www.w3.org/2000/svg" version="1.1" viewBox="0 0 232.03 231.01">
  <!-- Generator: Adobe Illustrator 30.8.1, SVG Export Plug-In . SVG Version: 2.1.4 Build 1)  -->
  <defs>
    <style>
      .st0 {
        fill: #0b383d;
      }

      .st1 {
        fill: none;
        stroke: #0b383d;
        stroke-miterlimit: 10;
        stroke-width: 3px;
      }
    </style>
  </defs>
  <g id="circles">
    <path class="st1" d="M228.37,115.68c0,30.79-12.39,58.69-32.45,78.99-.94.95-1.9,1.89-2.87,2.8-13.6,12.82-30.4,22.28-49.08,27.07-1.13.29-2.27.56-3.41.81-7.91,1.77-16.12,2.7-24.56,2.7-35.55,0-67.24-16.5-87.82-42.27-.75-.93-1.48-1.87-2.19-2.82C11.95,164.2,3.63,140.91,3.63,115.68,3.63,53.61,53.94,3.3,116,3.3s112.37,50.31,112.37,112.38Z"/>
  </g>
  <g id="Layer_1">
    <path class="st0" d="M101.76,188.11c-3.17-.2-5.76,1.74-6.23,4.92-.34,2.23.61,4.43,2.47,5.53,1.93,1.14,4.42.91,6.1-.56,1.35-1.19,2.11-2.7,2.34-4.58.36-2.93-2.24-5.16-4.68-5.31ZM103.23,196.39c-.71.95-1.85,1.29-3.02,1.17-.95-.09-1.9-.76-2.49-1.81-1.07-1.92-.38-4.63,1.69-5.56l3.13-.68.37,1.1c.2.6,1.05.97,1.18,1.67.27,1.45.02,2.94-.86,4.11Z"/>
    <path class="st0" d="M202.52,117.73c-3.12-.19-5.67,1.74-6.14,4.91-.33,2.22.61,4.42,2.44,5.51,1.9,1.14,4.36.91,6-.55,1.34-1.2,2.09-2.7,2.31-4.57.35-2.92-2.2-5.15-4.61-5.3ZM203.97,125.99c-.7.94-1.82,1.28-2.98,1.17-.93-.1-1.87-.77-2.44-1.81-1.06-1.91-.38-4.61,1.66-5.54l3.08-.68.36,1.1c.2.59,1.04.97,1.17,1.66.26,1.44.01,2.93-.85,4.1Z"/>
    <path class="st0" d="M193.4,93.34c-1.46-1.09-3.4-1.76-5.2-1.59-3.29.3-6.1,2.12-6.89,5.33.33.95.07,1.77-.83,2.16-.5,2.12-.18,4.2,1.17,5.94,1.11,1.44,2.88,2.55,5.28,2.56,4.8.02,8.53-4.31,8.55-8.92.01-2.2-.3-4.15-2.08-5.48ZM189.65,104.82c-2.09.75-4.57.21-6.02-1.51-.88-1.06-.6-2.6-.99-3.61-.4-1.03-.37-1.57.18-2.55.98-1.73,2.33-2.98,4.02-3.39,2.05-.5,4.27-.23,5.71,1.25,2.47,2.55,1.05,8.38-2.9,9.81Z"/>
    <path class="st0" d="M47.51,69.05c-1.94-1.12-3.82-1.83-5.89-.91-1.7.74-3.26,2.12-4.02,3.79-1.38,3.07-1.18,6.47,1.26,8.79,1.01.17,1.6.82,1.5,1.81,1.62,1.5,3.62,2.27,5.84,1.95,1.83-.27,3.7-1.28,4.91-3.39,2.43-4.24.47-9.71-3.6-12.04ZM49.89,77.21c-.38,2.23-2.1,4.16-4.35,4.57-1.38.25-2.6-.77-3.69-.93-1.11-.17-1.58-.46-2.17-1.44-1.04-1.73-1.47-3.56-.99-5.26.59-2.06,1.94-3.89,3.98-4.42,3.5-.91,7.94,3.27,7.22,7.48Z"/>
    <path class="st0" d="M41.81,98.8c-3.38-.21-6.14,1.85-6.65,5.25-.36,2.38.66,4.73,2.64,5.9,2.06,1.21,4.72.97,6.5-.6,1.45-1.27,2.26-2.88,2.51-4.89.38-3.12-2.39-5.5-5-5.66ZM43.38,107.63c-.75,1.02-1.97,1.38-3.22,1.25-1.02-.1-2.03-.81-2.65-1.93-1.14-2.04-.41-4.94,1.8-5.93l3.33-.73.4,1.18c.21.64,1.12,1.03,1.26,1.78.28,1.54.02,3.13-.92,4.38Z"/>
    <path class="st0" d="M162.71,150.6c-1.93-.76-3.12-2.39-4.72-3.49-1.75-1.2-3.17-2.47-4.78-3.81-3.79-3.15-7.39-6.45-10.2-10.52l-2.68-4.9c-1.19-2.16-1.84-4.45-1.61-6.97.3-3.31-.7-6.43-2.96-8.92l-3.41-3.77c-1.49-1.65-3.02-3.15-4.02-5.13l-9.47,11.8-3.92,3.95c-.46.46-1.17.51-1.55.29-2.23-1.32,1.18-3.98,3.33-6.38l2.8-3.13c1.26-1.41,2.48-2.72,3.81-4.11,1.39-1.46,2.55-3.1,4.22-4.41l-.62-4.55c.11-4.92,4.01-10.8,7.69-9.73l2.84,1.62,3.9-4.03,2.33-2.64c3.02-3.43,6.01-6.66,8.43-10.65.68-1.13.8-3.55-.17-4.5-2.32-2.29-5.61-1.89-8.66-.82-2.2,4.23-5.15,7.87-8.86,11.05-2.33,2.01-4.33,4.14-6.95,5.87l-2.95,2.84c1.23,1.28,1,2.61,1.05,4.1.1,2.64-.09,4.99-1.23,7.37-2.42,5.07-6.18,9.06-11.12,12.03-2.69,1.62-4.76,3.42-6.86,5.49-2.61,2.56-4.46,5.32-5.69,8.83-2.35,6.76-5.57,13.22-10.45,18.37-2.03,2.13-4.19,3.51-6.45,5.14l-5.93,4.29c-3.04,2.19-6.35,3.7-10.03,4.27-.15-.16-.43-.34-.65-.33-.12.01-.25-.18-.02-.32l.5-.32c2.95-1.84,6.02-3.26,8.82-5.34l6.96-5.18c1.71-1.26,2.85-3.02,4.48-4.49,3.89-3.49,7.36-11.79,9.34-17.22,1.15-3.15,2.64-5.88,4.83-8.37,1.52-1.73,2.85-3.44,4.83-4.73l7.96-5.19c3.02-1.97,5.06-5.23,6.58-8.5,1.48-3.19,1.94-9.31-1.07-9.67-1.81-.22-3.52-.2-5.02.58-7.94,4.11-16.27,17.76-30.57,19.14-.54.05-1.2-.53-1.3-.91-.36-1.32,5.47-2.31,9.39-4.54,9.19-5.25,15.64-13.33,21.29-16.16,2.95-1.48,7-1.87,9.46.32l9.87-9.95,1.52-1.82c3.33-2.92,7.52-9.41,6.05-11.26-.89-1.12-4.39-.57-6.85.67-3.82,1.92-7,4.64-10.31,7.42l-18.73,15.77c-3.96,3.33-8.09,5.96-12.51,8.59l-13.62,8.09c-5.37,3.19-9.86,7.53-13.08,12.88-2.81,4.67-4.4,9.63-6.49,14.62-1.88,4.49-3.42,8.8-5,13.41-2.78,8.13-4.94,14.34-9.77,21.85-4.91,7.63-10.55,14.53-16.53,21.29-.75-.93-1.48-1.87-2.19-2.82,5.98-6.54,11.62-13.23,16.48-20.71,3.18-4.9,5.44-9.9,7.44-15.33l6.03-16.32,4.44-10.68c3.34-8.03,8.07-14.33,15.28-19.31,3.96-2.73,7.97-5.14,12.24-7.47,5.59-3.06,10.88-6.08,15.81-10.22l18.33-15.37c-.72-1.79-2.09-2.93-3.27-4.32l-1.81-2.13-4.28-5.25c-.92-1.12-2.02-1.79-3.38-1.73-1.4.06-2.54.85-3.23,2.27-1.22,2.54-.91,5.37.52,7.85,1.8,3.13,5.36,9.39,3.64,9.94-.45.14-1.06.09-1.34-.4l-2.03-3.58c-1.21-2.95-3.12-5.53-5.2-7.93-.56-.66-1.43-1-2.23-.9-.63.08-1.5.9-1.74,1.78-1.32,4.94-.89,9.91.36,14.88.48,1.9,1.36,3.95.6,5.87-2.01,0-2.64-5.08-3.78-8.51-2.08,2.67-3.04,5.83-3.39,9.15-.14,1.26-.46,2.41-1.2,3.52-.89-.96-.85-2.06-.94-3.34-.29-4.1.98-7.99,3.9-10.95.28-.13.97-.21,1.02-.49.06-.31.22-1.06.1-1.34-.59-1.5-.25-2.62-.15-4.02.17-2.4.15-4.75,1.43-6.83,1.57-2.56,4.45-3.54,7.2-1.85-.16-2.47.82-4.24,2.38-5.7,2.3-2.15,5.49-2.63,8.15-.63.86-2.59,3.1-3.95,5.56-4.1,3.63-.22,6.52,1.22,8.92,3.72,1.49,1.55,3.59,2.63,4.38,5.07-1.33.6-2.55-.4-3.66-1.18l-5.2-3.68c-1.73-1.23-4.1-1.72-5.99-.93-1.11.47-1.62,1.63-1.72,2.48-.14,1.23.64,1.89,1.4,2.75l2.76,3.16c1.57,1.8,3.05,3.54,4.33,5.62,4.67-4.45,14.92-10.3,18.87-6.65,1.13,1.04,1.5,2.47,1.28,4.18,3.41-1.21,7.28-.95,9.76,1.76,2.1,2.3,1.79,5.56-.02,8.25,2.25.25,3.86,1.93,4.48,4.12.93,3.25-.2,6.59-2.42,9.16,3.51.85,4.69,4.08,3.66,7.28-.79,2.47-2.2,4.43-3.47,6.75-.43.78-1.59,1.97-2.36,1.14.59-3.36,4.07-6.46,3.75-10.3-.1-1.24-.89-2.37-1.68-2.49-3.24-.49-2.94,2.07-7.15,5.19-.88.65-1.63,1.63-2.91,1.38-.16-1.41.95-2.23,1.75-3.22l6.16-7.62c1.49-1.84,2.25-3.84,1.94-6.26-.19-1.5-2.43-3.52-3.56-2.57l-5.9,6.89-4.2,4.34c-.77.79-1.26,1.74-2.2,2.42-.34.25-.5.61-.56.9-.09.54.52.71.78,1.09,3.15,4.66,6.59,9.13,11.31,12.34,1.46,1,3.46,1.09,4.63,2.66l2.42,4.79,3.48,5.71c.28.47.15,1.07-.21,1.41-.28.26-.76.03-1.18-.34-3.58-3.14-4.35-7.12-7.17-9.92-4.74-1.95-8.39-4.88-11.53-8.9l-6.22-7.97c-.44-.56-1.27-1.96-2.16-1.58-3.18,1.35-4.3,7.6-2.65,11.4,1.02,2.34,2.85,4.14,4.66,5.83.88.83,1.54,1.8,2.3,2.6,3.23,3.37,4.59,7.37,4.2,12.03-.25,3.09,3.57,9.48,6.09,12.31l12.54,14.06c.76.85,1.75,1.38,2.05,2.61Z"/>
    <path class="st0" d="M66.98,75.12c-1.05-.52-2.46-.95-3.62-.25l-2.13,1.27c-1.56,1.33-2.23,4.37-1.06,6.16,1.21,1.87,3.47,2.29,5.27,1.87,1.71-.39,3.12-1.64,3.79-3.46.84-2.25-.08-4.5-2.25-5.59ZM65.71,81.86c-1.03.49-2.76.37-3.54-.93-1.03-1.7,1.7-4.66,2.19-4.7,1.06-.08,2.91.95,2.96,2.54.04,1.38-.46,2.54-1.61,3.09Z"/>
    <path class="st0" d="M89.45,23.96c-1.24-.62-2.9-1.12-4.27-.3l-2.5,1.5c-1.83,1.56-2.63,5.13-1.25,7.25,1.42,2.19,4.09,2.69,6.2,2.2,2.01-.47,3.67-1.94,4.46-4.07.99-2.65-.09-5.3-2.64-6.58ZM87.95,31.89c-1.22.57-3.24.43-4.17-1.1-1.2-2,2-5.48,2.59-5.53,1.24-.09,3.42,1.12,3.47,2.99.05,1.62-.54,2.99-1.89,3.64Z"/>
    <path class="st0" d="M118.91,127.88c.51-1.73,1.7-2.93,2.95-4.06,1.13-1.03,2-2.15,2.99-3.27,1.09-1.23,2.25-2.33,3.25-3.66,1.32-1.75,3.6-3.94,4.22-3.9,2.87.19-8.12,13-13.41,14.89Z"/>
    <path class="st0" d="M195.92,194.67c-.94.95-1.9,1.89-2.87,2.8l-9.42-20.15c-3.79-8.1-8-15.68-10.95-24.13-1.75-5.01-2.34-10.22-3.01-15.46l-.24-4.65-.37-5.29c-1.13-8.33-3.78-16.3-8.11-23.47-.38-.62-.11-1.84.42-1.81,3.77,2.69,6.1,9.07,7.78,13.68,1.92,5.28,2.88,10.51,3.29,16.13,1.01,13.62,3.47,21.38,9.46,33.63l7.76,15.88,6.26,12.84Z"/>
    <g>
      <path class="st0" d="M59.25,204.94c-.54.82-1.42,1.12-2.14.7s-.92-1.46-.44-2.3c3.54-6.18,7.87-11.66,12.3-17.25l3.64-3.98,10.65-10.64c6.6-6.6,16.89-8.71,25.03-13.18,8.38-4.61,15.31-8.43,20.29-17.22,2.36-4.17,5.42-8.84,9.81-10.6.25-.1.56-.34.8-.31s.65.64.46.86l-2.02,2.32c-2.88,2.54-4.81,5.53-6.54,8.95-5.2,10.3-13.96,14.67-23.46,19.94-2.08,1.16-4.08,2.07-6.33,2.92-6.2,2.34-11.66,5.59-16.74,9.9l-6.71,6.43-5.47,5.39c-4.87,5.73-9.03,11.8-13.14,18.08Z"/>
      <path class="st0" d="M143.97,224.54c-1.13.29-2.27.56-3.41.81-.1-.23-.16-.49-.19-.75l-.27-2.7-.23-10.35-.29-7.25c-1.76-13.74-2.35-23.32-13.3-33.43-3.03-2.8-7.37-5.86-7.28-10.03l5.71,5.33,4.6,3.98c3.35,2.89,6.7,6.53,8.58,10.53,1.13,2.43,2.16,4.77,2.77,7.44,1.36,6.01,2.2,11.95,2.89,18.09l.26,6.67.16,11.66Z"/>
    </g>
  </g>
</svg>